<svg data-v-423bf9ae="" xmlns="http://www.w3.org/2000/svg" viewBox="0 0 254 90" class="iconLeft"><!----><!----><!----><g data-v-423bf9ae="" id="e8026637-0add-4771-b3ec-8041560e8ad2" fill="black" transform="matrix(4.761904978157451,0,0,4.761904978157451,128.85180375993647,14.333334388004406)"><path d="M4.87 7.00L4.87 5.60L3.10 5.60L3.10 2.73L1.44 2.73L1.44 5.60L0.28 5.60L0.28 7.00L1.44 7.00L1.44 10.43C1.44 11.73 2.54 12.74 3.82 12.74C4.22 12.74 4.66 12.64 4.83 12.51L4.83 11.24L4.03 11.24C3.50 11.24 3.10 10.85 3.10 10.24L3.10 7.00ZM13.42 9.07C13.39 6.97 11.85 5.46 9.73 5.46C7.60 5.46 5.99 7.00 5.99 9.10C5.99 11.20 7.58 12.74 9.75 12.74C11.55 12.74 12.90 11.67 13.30 10.15L11.64 10.15C11.34 10.89 10.64 11.36 9.75 11.36C8.58 11.36 7.75 10.54 7.67 9.36L13.41 9.36ZM9.75 6.86C10.66 6.86 11.30 7.37 11.60 8.17L7.81 8.17C8.12 7.39 8.80 6.86 9.75 6.86ZM22.82 11.24C22.49 11.24 22.17 11.06 22.17 10.45L22.17 5.60L20.51 5.60L20.51 6.34C19.92 5.79 19.15 5.46 18.25 5.46C16.28 5.46 14.70 7.07 14.70 9.10C14.70 11.13 16.28 12.74 18.25 12.74C19.27 12.74 20.16 12.29 20.76 11.57C21.11 12.27 21.79 12.74 22.65 12.74C22.86 12.74 23.05 12.69 23.21 12.60L23.21 11.24ZM18.46 11.20C17.29 11.20 16.36 10.27 16.36 9.10C16.36 7.93 17.29 7.00 18.46 7.00C19.62 7.00 20.56 7.93 20.56 9.10C20.56 10.27 19.62 11.20 18.46 11.20ZM24.61 12.60L26.27 12.60L26.27 0.14L24.61 0.14Z"></path></g><!----><g data-v-423bf9ae="" id="85c41a42-85ec-4dc9-8986-c344be7f1827" transform="matrix(1.1469473831587607,0,0,1.1469473831587607,-1.3423822644810954,-11.591563191270055)" stroke="none" fill="black"><path d="M97.7 73.4c-.3-1.4-.3-3.6-.3-6.1 0-8.2.1-20.5-9.3-35.4l-5.7-9c-1-1.6-2.6-2.7-4.4-3.1-1.8-.4-3.7-.1-5.3.9 0 0-.1 0-.1.1-.9.6-1.7 1.4-2.2 2.4-.8-.6-1.8-1.1-2.8-1.3-1.9-.4-3.8-.1-5.4 1-.1 0-.1.1-.2.1-1.2.8-2.1 1.9-2.6 3.3-2-.9-4.5-.8-6.5.3-.1 0-.2.1-.3.1-.9.6-1.6 1.3-2.2 2.2l-9.2-14.5c-1.1-1.7-2.8-2.9-4.8-3.4-2-.4-4.1-.1-5.8 1l-.1.1h-.1c-1.7 1.1-2.9 2.8-3.4 4.8s-.1 4.1 1 5.8L43.5 47c-.8.4-1.5.9-2.2 1.3-.4.2-.7.5-1.1.7-1.8 1.2-3.1 3-3.6 5.1s-.1 4.3 1.1 6.1l5.4 8.5c.1.1.2.3.3.4 6.5 9 14.5 11.4 19.9 13 1.5.4 2.8.8 3.8 1.2.2.1.3.1.5.1 2.5.6 3.3 1.8 4.7 4.1l.5.8c.4.6 1.1 1 1.8 1 .4 0 .8-.1 1.1-.3 1-.6 1.3-1.9.7-2.9l-.5-.7c-1.5-2.5-3.1-5-7.3-6-1.2-.5-2.5-.9-4-1.3-5.5-1.6-12.9-3.8-18.8-13L41.3 58c-.6-.9-.8-1.9-.5-3 .2-1 .8-1.9 1.7-2.5.4-.3.8-.5 1.2-.8.7-.5 1.8-1.2 2-1.3 0 0 .1.1.4.5l6.3 9.9c.4.6 1.1 1 1.8 1 .4 0 .8-.1 1.1-.3 1-.6 1.3-1.9.6-2.9l-6.3-9.9-18-28.3c-.5-.8-.7-1.7-.5-2.7.2-.9.8-1.7 1.5-2.2 0 0 .1 0 .1-.1h.1c.8-.5 1.7-.7 2.7-.5.9.2 1.7.8 2.2 1.5l12.7 20 6 9.4c.4.6 1.1 1 1.8 1 .4 0 .8-.1 1.1-.3 1-.6 1.3-1.9.6-2.9l-6-9.4c-.9-1.4-.5-3.2.9-4.1 1.4-.9 3.2-.5 4.1.9l6 9.4c.4.6 1.1 1 1.8 1 .4 0 .8-.1 1.1-.3 1-.6 1.3-1.9.6-2.9l-5-7.8c-.4-.7-.6-1.5-.4-2.2.2-.8.6-1.4 1.3-1.9.7-.4 1.5-.6 2.2-.4.8.2 1.4.6 1.9 1.3l2 3.1 4 6.3c.4.6 1.1 1 1.8 1 .4 0 .8-.1 1.1-.3 1-.6 1.3-1.9.6-2.9l-4-6.3c-.4-.6-.5-1.4-.4-2.1.2-.7.6-1.3 1.2-1.7.6-.4 1.4-.5 2.1-.4.7.2 1.3.6 1.7 1.2l5.7 9c8.8 13.8 8.7 25.4 8.7 33.1 0 2.9 0 5.3.4 7.1.2 1 1.1 1.6 2 1.6.2 0 .3 0 .5-.1 1.5-.1 2.2-1.3 1.9-2.4zM22.9 25.3h-9.8c-.9 0-1.6.7-1.6 1.6s.7 1.6 1.6 1.6h6L4.9 44.1v-6.6c0-.9-.7-1.6-1.6-1.6s-1.6.7-1.6 1.6v10.6c0 .9.7 1.6 1.6 1.6h9.8c.9 0 1.6-.7 1.6-1.6s-.7-1.6-1.6-1.6h-6L21.3 31v6.6c0 .9.7 1.6 1.6 1.6s1.6-.7 1.6-1.6V26.9c.1-.9-.7-1.6-1.6-1.6z"></path></g><!----></svg>