<svg data-v-fde0c5aa="" xmlns="http://www.w3.org/2000/svg" viewBox="0 0 300 300" class="font"><!----><defs data-v-fde0c5aa=""><linearGradient data-v-fde0c5aa="" gradientTransform="rotate(25)" id="bb9a4ca3-4de4-4014-84b7-c7cfe14843ae" x1="0%" y1="0%" x2="100%" y2="0%"><stop data-v-fde0c5aa="" offset="0%" stop-color="#08C7D6" stop-opacity="1"></stop><stop data-v-fde0c5aa="" offset="100%" stop-color="#02023E" stop-opacity="1"></stop></linearGradient></defs><rect data-v-fde0c5aa="" fill="url(#bb9a4ca3-4de4-4014-84b7-c7cfe14843ae)" x="0" y="0" width="300px" height="300px" class="logo-background-square"></rect><defs data-v-fde0c5aa=""><!----></defs><g data-v-fde0c5aa="" id="50120d9c-0e22-48b7-8c1e-746fb95ebb87" fill="#ffffff" transform="matrix(8.464794226142272,0,0,8.464794226142272,37.629857606589326,95.48672760039541)"><path d="M4.87 7.00L4.87 5.60L3.10 5.60L3.10 2.73L1.44 2.73L1.44 5.60L0.28 5.60L0.28 7.00L1.44 7.00L1.44 10.43C1.44 11.73 2.54 12.74 3.82 12.74C4.22 12.74 4.66 12.64 4.83 12.51L4.83 11.24L4.03 11.24C3.50 11.24 3.10 10.85 3.10 10.24L3.10 7.00ZM13.42 9.07C13.39 6.97 11.85 5.46 9.73 5.46C7.60 5.46 5.99 7.00 5.99 9.10C5.99 11.20 7.58 12.74 9.75 12.74C11.55 12.74 12.90 11.67 13.30 10.15L11.64 10.15C11.34 10.89 10.64 11.36 9.75 11.36C8.58 11.36 7.75 10.54 7.67 9.36L13.41 9.36ZM9.75 6.86C10.66 6.86 11.30 7.37 11.60 8.17L7.81 8.17C8.12 7.39 8.80 6.86 9.75 6.86ZM22.82 11.24C22.49 11.24 22.17 11.06 22.17 10.45L22.17 5.60L20.51 5.60L20.51 6.34C19.92 5.79 19.15 5.46 18.25 5.46C16.28 5.46 14.70 7.07 14.70 9.10C14.70 11.13 16.28 12.74 18.25 12.74C19.27 12.74 20.16 12.29 20.76 11.57C21.11 12.27 21.79 12.74 22.65 12.74C22.86 12.74 23.05 12.69 23.21 12.60L23.21 11.24ZM18.46 11.20C17.29 11.20 16.36 10.27 16.36 9.10C16.36 7.93 17.29 7.00 18.46 7.00C19.62 7.00 20.56 7.93 20.56 9.10C20.56 10.27 19.62 11.20 18.46 11.20ZM24.61 12.60L26.27 12.60L26.27 0.14L24.61 0.14Z"></path></g><!----><!----></svg>